<?xml version="1.0" standalone="no"?>
<!DOCTYPE svg PUBLIC "-//W3C//DTD SVG 20010904//EN"
 "http://www.w3.org/TR/2001/REC-SVG-20010904/DTD/svg10.dtd">
<svg version="1.0" xmlns="http://www.w3.org/2000/svg"
 width="500.000000pt" height="390.000000pt" viewBox="0 0 500.000000 390.000000"
 preserveAspectRatio="xMidYMid meet">

<g transform="translate(0.000000,390.000000) scale(0.100000,-0.100000)"
fill="#000000" stroke="none">
<path d="M2750 3823 c-69 -11 -133 -51 -151 -94 -12 -30 -39 -40 -39 -15 0 26
-40 84 -63 91 -39 13 -489 16 -533 4 -49 -13 -67 -40 -67 -100 0 -36 6 -47 42
-81 l43 -39 -5 -92 c-8 -137 -13 -151 -59 -177 -36 -20 -41 -21 -57 -6 -13 12
-20 13 -29 4 -7 -7 -12 -17 -13 -22 -1 -16 -81 -72 -138 -97 -28 -11 -53 -29
-56 -40 -3 -10 -15 -21 -26 -24 -10 -4 -26 -18 -33 -33 -8 -15 -24 -35 -35
-44 -12 -10 -21 -30 -21 -44 0 -22 2 -25 15 -14 13 10 15 9 15 -8 0 -12 -5
-24 -10 -27 -6 -4 -10 -25 -8 -46 2 -40 -11 -58 -39 -59 -9 0 -13 -16 -13 -44
0 -60 -15 -94 -45 -106 -33 -13 -32 -26 5 -45 40 -21 65 -65 36 -65 -8 0 -31
-16 -53 -36 -21 -19 -45 -41 -53 -48 -38 -34 -50 -61 -50 -112 0 -29 -5 -65
-11 -80 -12 -33 -13 -168 -2 -298 4 -50 7 -106 7 -123 -1 -39 2 -39 146 -21
101 12 174 5 135 -14 -29 -13 -51 -48 -31 -48 8 0 18 5 21 10 3 6 19 10 35 10
16 0 32 5 35 10 9 14 78 13 73 -2 -2 -6 -39 -30 -81 -52 -42 -23 -98 -60 -125
-83 -47 -41 -54 -57 -44 -105 4 -16 20 -7 25 12 7 27 67 28 90 2 16 -17 16
-19 -8 -32 -14 -7 -25 -19 -25 -27 0 -7 -4 -13 -9 -13 -5 0 -15 -2 -23 -5 -7
-3 -18 4 -23 17 -13 29 -53 38 -97 23 -19 -6 -42 -9 -50 -6 -22 8 -96 78 -132
123 -22 28 -33 35 -42 27 -10 -8 -16 -5 -26 10 -7 12 -16 21 -20 21 -11 0 -10
-82 1 -98 14 -22 63 -44 71 -32 5 7 11 6 20 -5 7 -8 18 -15 26 -15 7 0 19 -6
26 -13 21 -20 84 -47 111 -47 13 0 30 -6 36 -14 10 -12 89 -31 163 -38 15 -2
35 5 47 16 35 32 151 47 179 24 18 -16 71 -19 95 -7 12 7 17 6 17 -3 0 -7 14
2 31 20 16 18 33 31 38 28 5 -3 19 16 32 42 13 26 25 49 27 51 1 3 7 0 12 -5
7 -7 5 -25 -5 -53 -8 -24 -15 -48 -15 -53 0 -12 44 2 49 16 2 6 17 23 32 37
20 19 33 47 49 116 26 106 37 116 149 134 96 16 112 7 159 -90 22 -44 45 -78
59 -84 13 -6 23 -14 23 -19 0 -4 5 -8 11 -8 18 0 70 -62 65 -77 -4 -9 -1 -11
5 -7 8 4 10 28 6 65 -3 35 -1 59 4 59 6 0 27 -9 47 -19 88 -45 125 -61 144
-61 29 0 58 18 58 37 0 45 23 79 69 101 26 12 52 22 59 22 7 0 12 4 12 8 0 11
86 52 109 52 29 0 51 11 51 25 0 7 7 18 16 26 14 11 14 13 0 21 -9 5 -16 15
-16 22 0 19 -33 46 -56 46 -11 0 -28 11 -38 25 -10 14 -27 25 -37 25 -10 0
-25 10 -34 23 -26 36 -2 42 295 74 50 5 59 3 87 -21 35 -30 66 -26 61 8 -2 17
-14 23 -61 32 -32 7 -61 14 -64 18 -3 3 -9 42 -14 88 -14 149 -32 229 -54 246
-11 10 -31 40 -45 69 -14 28 -33 54 -43 56 -9 3 -24 21 -32 41 -9 20 -21 36
-29 36 -16 0 -33 42 -35 89 -2 42 -6 47 -24 33 -17 -15 -27 -6 -27 25 0 13
-11 33 -25 45 -14 12 -25 26 -25 31 0 4 -7 15 -15 23 -8 9 -15 26 -15 39 0 19
-16 35 -36 35 -2 0 -4 -13 -4 -30 0 -23 -5 -30 -19 -30 -11 0 -21 -6 -24 -12
-3 -7 -3 29 0 81 4 86 2 95 -18 117 -12 13 -27 24 -32 24 -13 0 0 -60 17 -79
14 -16 15 -75 3 -88 -4 -3 -16 2 -27 12 -11 10 -20 15 -20 11 0 -10 -55 55
-69 82 -9 16 -18 21 -32 17 -10 -4 -19 -3 -19 0 0 15 22 45 32 45 6 0 19 7 29
16 9 8 25 16 35 16 17 2 19 9 16 65 -3 58 -2 62 20 67 12 3 36 7 51 11 39 8
83 50 101 96 21 51 21 193 1 253 -8 24 -27 57 -43 73 -38 39 -124 66 -182 56z
m116 -59 c20 -10 45 -34 59 -59 22 -36 25 -54 25 -134 0 -103 -14 -148 -53
-174 -29 -19 -88 -22 -118 -7 -16 9 -19 7 -19 -10 0 -18 -6 -20 -70 -20 l-70
0 0 75 0 75 69 0 c63 0 69 -2 75 -22 6 -21 8 -21 19 -7 7 10 12 51 12 110 0
77 -3 94 -15 94 -11 0 -16 -13 -18 -47 l-3 -48 -76 0 -76 0 6 52 c8 61 30 96
78 120 43 23 130 23 175 2z m-606 -49 l0 -55 -45 0 -46 0 1 -217 2 -218 -76
-3 -76 -3 0 221 0 220 -44 0 -44 0 -4 55 -3 55 168 0 167 0 0 -55z m250 32 c0
-13 7 -64 15 -113 12 -76 30 -205 51 -371 l5 -43 -75 0 -75 0 -3 48 c-3 40 -6
47 -25 50 -21 3 -23 0 -23 -47 l0 -51 -80 0 -80 0 5 33 c2 17 16 127 30 242
13 116 27 225 30 243 l6 32 109 0 c108 0 110 0 110 -23z m250 -472 l0 -55 -70
0 -70 0 0 48 c0 27 3 52 7 55 3 4 35 7 70 7 l63 0 0 -55z m-1053 -162 c-7 -43
-20 -58 -41 -50 -21 8 -20 32 2 62 27 38 46 32 39 -12z m-192 -273 c7 -12 -12
-40 -26 -40 -10 0 -12 34 -2 43 9 10 21 9 28 -3z m1290 -54 c40 -16 70 -31 83
-43 7 -7 26 -20 42 -30 17 -9 30 -23 30 -29 0 -6 11 -19 24 -27 32 -22 136
-125 136 -136 0 -5 9 -11 19 -14 11 -2 31 -27 45 -53 63 -123 96 -194 96 -207
0 -8 7 -20 15 -27 25 -20 19 -59 -10 -66 -31 -8 -51 5 -133 85 -35 33 -69 61
-76 61 -7 0 -21 9 -31 20 -30 33 -80 42 -229 41 -196 -2 -357 -17 -374 -36 -5
-6 -15 -32 -22 -58 -9 -35 -16 -45 -22 -35 -6 8 -8 -2 -5 -31 4 -33 13 -50 39
-72 18 -16 43 -31 55 -35 12 -3 24 -12 27 -20 3 -8 15 -14 26 -14 44 0 14 -46
-50 -75 -19 -8 -42 -19 -50 -24 -30 -19 -119 -41 -188 -47 -66 -6 -72 -5 -95
18 -14 14 -33 28 -42 32 -15 6 -15 8 4 24 12 10 29 48 41 92 24 90 25 100 4
100 -15 0 -57 37 -65 57 -7 15 -118 65 -129 58 -6 -4 -16 -2 -23 3 -27 21 -74
21 -95 2 -12 -11 -28 -17 -36 -14 -8 3 -41 -6 -72 -20 -31 -15 -59 -24 -62
-22 -16 16 -172 -84 -172 -110 0 -7 -15 -24 -34 -36 -23 -15 -38 -35 -46 -63
-7 -22 -16 -50 -21 -63 -12 -31 -12 -32 10 -32 11 0 41 16 67 37 47 35 49 36
77 20 36 -21 61 -22 53 -2 -4 12 3 15 29 15 24 0 35 -5 35 -15 0 -8 8 -15 17
-15 11 0 14 -3 7 -10 -6 -6 -59 -15 -120 -21 -60 -6 -119 -16 -131 -21 -12 -6
-28 -8 -36 -5 -8 3 -23 -1 -34 -8 -17 -14 -63 -21 -63 -10 0 10 50 269 58 305
5 19 13 44 19 55 5 11 17 35 26 53 9 19 17 38 17 44 0 6 10 25 23 42 12 17 28
43 34 57 6 15 24 42 40 60 16 19 37 47 47 62 9 15 24 31 32 34 8 3 27 17 43
32 16 15 46 32 67 38 54 16 146 39 229 59 39 9 78 20 87 25 9 5 77 10 150 10
73 1 141 5 150 8 24 9 439 6 463 -3z m319 -601 c3 -8 12 -15 21 -15 8 0 15 -5
15 -11 0 -6 -7 -8 -16 -5 -9 4 -22 2 -29 -4 -7 -6 -53 -13 -102 -15 -48 -2
-80 -2 -70 1 9 3 17 10 17 16 0 6 7 19 15 28 21 23 140 26 149 5z m-1334 -211
c0 -2 -12 -4 -27 -4 -21 0 -24 3 -14 9 13 8 41 5 41 -5z m1230 6 c0 -5 -4 -10
-10 -10 -5 0 -10 5 -10 10 0 6 5 10 10 10 6 0 10 -4 10 -10z m130 -40 c0 -5
-4 -10 -10 -10 -5 0 -10 5 -10 10 0 6 5 10 10 10 6 0 10 -4 10 -10z m-617 -7
c3 -5 8 -30 12 -57 6 -40 5 -47 -6 -40 -8 5 -22 7 -31 6 -12 -2 -18 3 -18 16
0 11 -3 34 -6 51 -6 28 -4 31 19 31 14 0 28 -3 30 -7z m513 -33 c21 0 25 -32
8 -51 -25 -27 -53 -24 -65 8 -14 37 -4 57 24 49 12 -3 27 -6 33 -6z m-922 -36
c19 -19 21 -64 4 -87 -16 -20 -69 -48 -80 -41 -11 7 -10 54 2 54 15 0 41 57
34 74 -8 21 20 21 40 0z"/>
<path d="M2399 3579 c0 -8 -4 -49 -7 -91 -7 -71 -6 -78 10 -78 17 0 18 8 12
88 -6 79 -13 117 -15 81z"/>
<path d="M1486 2911 c-4 -7 -5 -15 -2 -18 9 -9 19 4 14 18 -4 11 -6 11 -12 0z"/>
<path d="M3498 2043 c-28 -35 -38 -70 -23 -83 20 -17 59 -8 63 13 5 26 -7 87
-17 87 -4 0 -14 -8 -23 -17z"/>
<path d="M1198 1835 c-28 -24 -36 -49 -18 -60 5 -3 13 9 18 26 6 26 16 35 47
45 38 11 39 12 10 13 -18 0 -41 -9 -57 -24z"/>
<path d="M2780 1505 c-27 -86 -33 -236 -11 -243 15 -5 14 -69 -1 -88 -29 -33
-38 -42 -50 -47 -11 -4 -11 -7 0 -18 17 -18 44 -1 57 37 15 43 32 59 50 44 8
-6 25 -10 38 -8 13 1 30 -2 38 -8 11 -9 70 -12 100 -5 13 3 -4 148 -22 185
-11 22 -19 46 -19 53 0 7 -6 13 -13 13 -7 0 -23 18 -37 40 -14 22 -30 40 -36
40 -6 0 -14 14 -18 31 -9 44 -8 47 12 52 9 3 -1 4 -23 3 l-41 -1 -24 -80z"/>
<path d="M2000 1545 c0 -9 5 -15 11 -13 6 2 11 8 11 13 0 5 -5 11 -11 13 -6 2
-11 -4 -11 -13z"/>
<path d="M1910 1360 c0 -18 3 -19 20 -10 11 6 20 15 20 20 0 6 -9 10 -20 10
-13 0 -20 -7 -20 -20z"/>
<path d="M3510 1315 c0 -14 5 -25 10 -25 6 0 10 11 10 25 0 14 -4 25 -10 25
-5 0 -10 -11 -10 -25z"/>
<path d="M2354 1311 c-40 -8 -99 -55 -90 -73 3 -7 11 -21 18 -30 23 -32 -1
-31 -31 1 -28 30 -34 32 -87 29 -55 -3 -57 -4 -80 -46 -14 -24 -21 -48 -18
-54 4 -6 9 -29 11 -51 2 -22 8 -47 15 -54 14 -17 74 -13 71 4 -2 7 17 24 42
39 25 14 45 30 45 35 0 17 42 51 56 45 8 -3 14 -17 14 -31 0 -21 -5 -25 -30
-25 l-31 0 7 -117 c8 -145 8 -151 -6 -168 -9 -11 -16 -12 -30 -2 -15 9 -27 8
-53 -1 -18 -7 -41 -12 -50 -12 -9 0 -17 -4 -17 -10 0 -5 10 -10 22 -10 20 0
19 -3 -15 -38 -21 -21 -34 -42 -30 -47 5 -4 2 -5 -5 -1 -7 5 -17 19 -23 32 -8
22 -13 24 -43 19 -28 -6 -36 -3 -45 14 -17 30 -68 29 -73 -1 -2 -18 -11 -24
-34 -26 -28 -3 -33 -8 -42 -45 -6 -23 -14 -64 -18 -92 -3 -27 -15 -67 -25 -87
-10 -20 -15 -39 -10 -42 4 -3 11 -37 15 -75 9 -85 36 -144 70 -148 29 -4 32 4
42 102 7 78 21 111 72 171 34 41 35 42 66 29 17 -7 45 -11 62 -8 18 3 35 0 38
-6 4 -6 19 -11 33 -11 42 0 103 -22 103 -37 0 -8 -17 -30 -37 -50 -36 -33 -38
-38 -41 -109 -5 -92 0 -109 28 -94 13 7 20 7 20 0 0 -5 -7 -10 -15 -10 -8 0
-15 -4 -15 -10 0 -13 7 -13 58 5 24 9 47 13 51 11 4 -3 25 1 47 9 21 8 51 14
67 15 23 0 27 -4 27 -29 0 -16 6 -33 13 -39 18 -15 87 -3 87 15 0 8 4 12 9 8
5 -3 13 -1 16 5 4 6 1 9 -7 8 -7 -2 -14 7 -16 19 -2 13 -8 23 -13 23 -6 0 -6
7 0 19 8 15 25 19 90 23 44 3 87 10 95 18 20 16 21 40 1 40 -8 0 -15 5 -15 10
0 6 5 10 11 10 6 0 -3 12 -20 26 -17 14 -31 32 -31 40 0 8 -7 14 -16 14 -22 0
-43 29 -44 58 0 15 6 22 18 22 28 0 65 44 57 69 -10 32 11 57 59 71 25 7 44
16 41 20 -3 4 4 10 15 13 11 3 20 11 20 17 0 8 -8 10 -22 6 -48 -14 -204 -19
-225 -7 -23 12 -29 60 -11 94 6 12 5 31 -3 55 -7 20 -14 31 -16 25 -8 -22 -32
-14 -39 12 -3 14 -10 25 -15 25 -5 0 -9 7 -9 15 0 8 6 14 13 12 8 -1 13 14 14
46 1 37 -2 49 -15 54 -9 3 -31 12 -49 21 l-32 16 3 80 c3 60 -1 88 -12 109 -9
15 -19 26 -22 26 -3 -1 -19 -4 -36 -8z m-54 -61 c0 -5 -4 -10 -10 -10 -5 0
-10 5 -10 10 0 6 5 10 10 10 6 0 10 -4 10 -10z m62 -310 c10 0 18 -5 18 -10 0
-18 -30 -23 -48 -8 -9 9 -24 18 -32 21 -12 4 -11 6 3 6 9 1 17 9 18 19 0 13 3
12 11 -5 6 -13 19 -23 30 -23z m-46 -158 c-12 -11 -18 7 -10 30 l8 23 4 -23
c2 -13 1 -26 -2 -30z m44 -32 c12 -8 9 -10 -12 -10 -16 0 -28 5 -28 10 0 13
20 13 40 0z m-225 -80 c-3 -5 -11 -10 -16 -10 -6 0 -7 5 -4 10 3 6 11 10 16
10 6 0 7 -4 4 -10z m69 -108 c-8 -2 -23 0 -32 4 -14 6 -13 8 8 14 14 3 28 2
32 -4 4 -6 1 -13 -8 -14z m-54 -7 c8 -9 8 -15 2 -15 -18 0 -42 12 -42 21 0 14
26 10 40 -6z"/>
<path d="M1933 1294 c-4 -11 -8 -12 -13 -4 -6 9 -14 6 -29 -9 -11 -11 -24 -21
-29 -21 -10 0 -62 -167 -66 -215 -3 -27 -9 -41 -20 -43 -19 -4 -21 -18 -3 -25
10 -4 10 -7 0 -18 -13 -13 -18 -59 -7 -59 16 0 154 140 154 156 0 6 9 19 20
29 24 22 53 79 56 109 2 32 -25 104 -42 110 -8 3 -17 -1 -21 -10z"/>
<path d="M2555 1271 c-45 -11 -70 -30 -83 -63 -12 -32 -14 -30 89 -64 80 -27
127 1 109 66 -6 22 -63 72 -79 69 -3 -1 -19 -4 -36 -8z"/>
<path d="M2996 862 c-3 -5 -8 -27 -12 -48 -4 -30 -13 -44 -35 -56 -17 -10 -29
-25 -29 -38 0 -11 -4 -20 -10 -20 -5 0 -10 -7 -10 -15 0 -20 13 -19 40 5 13
11 27 20 32 20 10 0 40 -22 114 -82 28 -24 56 -38 73 -38 l28 0 -8 56 c-4 30
-14 65 -23 77 -30 42 -43 57 -53 57 -15 0 -51 43 -55 65 -3 21 -42 33 -52 17z"/>
<path d="M4150 177 c-36 -12 -68 -27 -73 -33 -4 -7 -40 -25 -80 -40 -39 -15
-88 -38 -107 -50 -20 -13 -50 -26 -68 -30 -85 -17 -23 -24 212 -24 163 0 256
4 256 10 0 19 -53 165 -64 177 -8 8 -27 6 -76 -10z"/>
<path d="M2622 107 c-10 -11 -33 -15 -90 -14 -53 0 -86 -5 -107 -16 -16 -9
-24 -16 -16 -17 10 0 12 -8 8 -30 l-6 -30 152 0 152 0 17 30 c15 26 15 30 2
30 -9 0 -27 9 -41 20 -14 11 -31 20 -39 20 -7 0 -14 5 -16 11 -2 7 -8 6 -16
-4z"/>
<path d="M1952 30 c0 -19 2 -27 5 -17 2 9 2 25 0 35 -3 9 -5 1 -5 -18z"/>
<path d="M2360 10 c0 -5 5 -10 10 -10 6 0 10 5 10 10 0 6 -4 10 -10 10 -5 0
-10 -4 -10 -10z"/>
</g>
</svg>
